<?xml version="1.0" ?>
<svg xmlns="http://www.w3.org/2000/svg" viewBox="0 0 720 360" width="720" height="360" font-family="sans-serif">
  

  <rect width="720" height="360" fill="#0d0d1a"/>
  

  <text x="60" y="30" fill="#e2e8f0" font-size="18" font-weight="bold">Aurelia density diversification</text>
  

  <text x="60" y="50" fill="#888" font-size="11">active NPCs per world at run end (final_state == 'active')</text>
  

  <text x="60" y="85" fill="#e2e8f0" font-size="13" font-weight="bold">100y baseline</text>
  

  <text x="60" y="102" fill="#4ecdc4" font-size="11">CV = 0.6739</text>
  

  <rect x="130" y="120" width="190" height="22" fill="#1a1a2e" rx="2"/>
  

  <rect x="130" y="120" width="190" height="22" fill="#f6c343" rx="2"/>
  

  <text x="65" y="136" fill="#e2e8f0" font-size="11">solara</text>
  

  <text x="331" y="136" fill="#e2e8f0" font-size="11">171</text>
  

  <rect x="130" y="156" width="190" height="22" fill="#1a1a2e" rx="2"/>
  

  <rect x="130" y="156" width="64" height="22" fill="#f6c343" rx="2"/>
  

  <text x="65" y="172" fill="#e2e8f0" font-size="11">arkos</text>
  

  <text x="331" y="172" fill="#e2e8f0" font-size="11">58</text>
  

  <rect x="130" y="192" width="190" height="22" fill="#1a1a2e" rx="2"/>
  

  <rect x="130" y="192" width="70" height="22" fill="#f6c343" rx="2"/>
  

  <text x="65" y="208" fill="#e2e8f0" font-size="11">mirithane</text>
  

  <text x="331" y="208" fill="#e2e8f0" font-size="11">63</text>
  

  <rect x="130" y="228" width="190" height="22" fill="#1a1a2e" rx="2"/>
  

  <rect x="130" y="228" width="32" height="22" fill="#f6c343" rx="2"/>
  

  <text x="65" y="244" fill="#e2e8f0" font-size="11">valdris</text>
  

  <text x="331" y="244" fill="#e2e8f0" font-size="11">29</text>
  

  <rect x="130" y="264" width="190" height="22" fill="#1a1a2e" rx="2"/>
  

  <rect x="130" y="264" width="54" height="22" fill="#f6c343" rx="2"/>
  

  <text x="65" y="280" fill="#e2e8f0" font-size="11">verge</text>
  

  <text x="331" y="280" fill="#e2e8f0" font-size="11">49</text>
  

  <text x="360" y="85" fill="#e2e8f0" font-size="13" font-weight="bold">density 100y</text>
  

  <text x="360" y="102" fill="#4ecdc4" font-size="11">CV = 0.0060</text>
  

  <rect x="430" y="120" width="190" height="22" fill="#1a1a2e" rx="2"/>
  

  <rect x="430" y="120" width="74" height="22" fill="#a78bfa" rx="2"/>
  

  <text x="365" y="136" fill="#e2e8f0" font-size="11">solara</text>
  

  <text x="631" y="136" fill="#e2e8f0" font-size="11">67</text>
  

  <rect x="430" y="156" width="190" height="22" fill="#1a1a2e" rx="2"/>
  

  <rect x="430" y="156" width="74" height="22" fill="#a78bfa" rx="2"/>
  

  <text x="365" y="172" fill="#e2e8f0" font-size="11">arkos</text>
  

  <text x="631" y="172" fill="#e2e8f0" font-size="11">67</text>
  

  <rect x="430" y="192" width="190" height="22" fill="#1a1a2e" rx="2"/>
  

  <rect x="430" y="192" width="74" height="22" fill="#a78bfa" rx="2"/>
  

  <text x="365" y="208" fill="#e2e8f0" font-size="11">mirithane</text>
  

  <text x="631" y="208" fill="#e2e8f0" font-size="11">67</text>
  

  <rect x="430" y="228" width="190" height="22" fill="#1a1a2e" rx="2"/>
  

  <rect x="430" y="228" width="74" height="22" fill="#a78bfa" rx="2"/>
  

  <text x="365" y="244" fill="#e2e8f0" font-size="11">valdris</text>
  

  <text x="631" y="244" fill="#e2e8f0" font-size="11">67</text>
  

  <rect x="430" y="264" width="190" height="22" fill="#1a1a2e" rx="2"/>
  

  <rect x="430" y="264" width="73" height="22" fill="#a78bfa" rx="2"/>
  

  <text x="365" y="280" fill="#e2e8f0" font-size="11">verge</text>
  

  <text x="631" y="280" fill="#e2e8f0" font-size="11">66</text>
  

  <text x="60" y="344" fill="#f6c343" font-size="14" font-weight="bold">Cross-world population CV reduction: 99.1%</text>
  

</svg>
